<mxfile host="app.diagrams.net" modified="2024-04-21T06:35:31.400Z" agent="Mozilla/5.0 (Windows NT 10.0; Win64; x64) AppleWebKit/537.36 (KHTML, like Gecko) Chrome/124.0.0.0 Safari/537.36" etag="vr4FOY1euKn-SF0a4eAE" version="24.2.5" type="device" pages="5">
  <diagram name="Receive Notifications" id="eH_CgCgpKJzSwUUcgPdi">
    <mxGraphModel dx="3000" dy="1491" grid="1" gridSize="10" guides="1" tooltips="1" connect="1" arrows="1" fold="1" page="1" pageScale="1" pageWidth="827" pageHeight="1169" math="0" shadow="0">
      <root>
        <mxCell id="0" />
        <mxCell id="1" parent="0" />
        <mxCell id="_-qtAuHiCCSlVKN4dOLj-3" value="Receiving Notifications for Medication Reminders" style="shape=rect;html=1;verticalAlign=top;fontStyle=1;whiteSpace=wrap;align=center;fontSize=16;" parent="1" vertex="1">
          <mxGeometry x="245" y="190" width="310" height="920" as="geometry" />
        </mxCell>
        <mxCell id="_-qtAuHiCCSlVKN4dOLj-2" value="Get Reminders" style="ellipse;whiteSpace=wrap;html=1;fontSize=16;" parent="1" vertex="1">
          <mxGeometry x="300" y="250" width="200" height="70" as="geometry" />
        </mxCell>
        <mxCell id="_-qtAuHiCCSlVKN4dOLj-4" value="Find Medications&amp;nbsp;&lt;div&gt;not Taken&lt;/div&gt;" style="ellipse;whiteSpace=wrap;html=1;fontSize=16;" parent="1" vertex="1">
          <mxGeometry x="300" y="370" width="200" height="70" as="geometry" />
        </mxCell>
        <mxCell id="_-qtAuHiCCSlVKN4dOLj-5" value="Check Notification Permissions" style="ellipse;whiteSpace=wrap;html=1;fontSize=16;" parent="1" vertex="1">
          <mxGeometry x="300" y="500" width="200" height="70" as="geometry" />
        </mxCell>
        <mxCell id="_-qtAuHiCCSlVKN4dOLj-6" value="Create Notification" style="ellipse;whiteSpace=wrap;html=1;fontSize=16;" parent="1" vertex="1">
          <mxGeometry x="300" y="630" width="200" height="70" as="geometry" />
        </mxCell>
        <mxCell id="_-qtAuHiCCSlVKN4dOLj-7" value="Send Notification" style="ellipse;whiteSpace=wrap;html=1;fontSize=16;" parent="1" vertex="1">
          <mxGeometry x="300" y="760" width="200" height="70" as="geometry" />
        </mxCell>
        <mxCell id="_-qtAuHiCCSlVKN4dOLj-8" value="Mark medication from&lt;div style=&quot;font-size: 16px;&quot;&gt;notification as taken&lt;/div&gt;" style="ellipse;whiteSpace=wrap;html=1;fontSize=16;" parent="1" vertex="1">
          <mxGeometry x="300" y="1000" width="200" height="70" as="geometry" />
        </mxCell>
        <mxCell id="_-qtAuHiCCSlVKN4dOLj-9" value="&amp;lt;&amp;lt;include&amp;gt;&amp;gt;" style="edgeStyle=none;html=1;endArrow=open;verticalAlign=middle;dashed=1;labelBackgroundColor=none;rounded=0;exitX=0.5;exitY=1;exitDx=0;exitDy=0;entryX=0.5;entryY=0;entryDx=0;entryDy=0;fontSize=16;" parent="1" source="_-qtAuHiCCSlVKN4dOLj-2" target="_-qtAuHiCCSlVKN4dOLj-4" edge="1">
          <mxGeometry width="160" relative="1" as="geometry">
            <mxPoint x="480" y="360" as="sourcePoint" />
            <mxPoint x="640" y="360" as="targetPoint" />
            <mxPoint as="offset" />
          </mxGeometry>
        </mxCell>
        <mxCell id="_-qtAuHiCCSlVKN4dOLj-10" value="&amp;lt;&amp;lt;extend&amp;gt;&amp;gt;" style="edgeStyle=none;html=1;startArrow=open;endArrow=none;startSize=12;verticalAlign=middle;dashed=1;labelBackgroundColor=none;rounded=0;entryX=0.5;entryY=1;entryDx=0;entryDy=0;fontSize=16;" parent="1" source="_-qtAuHiCCSlVKN4dOLj-5" target="_-qtAuHiCCSlVKN4dOLj-4" edge="1">
          <mxGeometry width="160" relative="1" as="geometry">
            <mxPoint x="100" y="500" as="sourcePoint" />
            <mxPoint x="260" y="500" as="targetPoint" />
            <mxPoint as="offset" />
          </mxGeometry>
        </mxCell>
        <mxCell id="_-qtAuHiCCSlVKN4dOLj-11" value="&amp;lt;&amp;lt;include&amp;gt;&amp;gt;" style="edgeStyle=none;html=1;endArrow=open;verticalAlign=middle;dashed=1;labelBackgroundColor=none;rounded=0;exitX=0.5;exitY=1;exitDx=0;exitDy=0;fontSize=16;" parent="1" source="_-qtAuHiCCSlVKN4dOLj-6" target="_-qtAuHiCCSlVKN4dOLj-7" edge="1">
          <mxGeometry width="160" relative="1" as="geometry">
            <mxPoint x="210" y="670" as="sourcePoint" />
            <mxPoint x="370" y="670" as="targetPoint" />
          </mxGeometry>
        </mxCell>
        <mxCell id="_-qtAuHiCCSlVKN4dOLj-14" value="&amp;lt;&amp;lt;include&amp;gt;&amp;gt;" style="edgeStyle=none;html=1;endArrow=open;verticalAlign=middle;dashed=1;labelBackgroundColor=none;rounded=0;exitX=0.5;exitY=1;exitDx=0;exitDy=0;entryX=0.5;entryY=0;entryDx=0;entryDy=0;fontSize=16;" parent="1" source="_-qtAuHiCCSlVKN4dOLj-5" target="_-qtAuHiCCSlVKN4dOLj-6" edge="1">
          <mxGeometry width="160" relative="1" as="geometry">
            <mxPoint x="200" y="620" as="sourcePoint" />
            <mxPoint x="360" y="620" as="targetPoint" />
          </mxGeometry>
        </mxCell>
        <mxCell id="_-qtAuHiCCSlVKN4dOLj-21" style="rounded=0;orthogonalLoop=1;jettySize=auto;html=1;exitX=0;exitY=0.3333333333333333;exitDx=0;exitDy=0;exitPerimeter=0;entryX=1;entryY=0.5;entryDx=0;entryDy=0;strokeColor=default;startArrow=none;startFill=0;endArrow=none;endFill=0;" parent="1" source="_-qtAuHiCCSlVKN4dOLj-15" target="_-qtAuHiCCSlVKN4dOLj-2" edge="1">
          <mxGeometry relative="1" as="geometry" />
        </mxCell>
        <mxCell id="_-qtAuHiCCSlVKN4dOLj-15" value="Activity Service" style="shape=umlActor;html=1;verticalLabelPosition=bottom;verticalAlign=top;align=center;fontSize=16;" parent="1" vertex="1">
          <mxGeometry x="650" y="260" width="30" height="60" as="geometry" />
        </mxCell>
        <mxCell id="_-qtAuHiCCSlVKN4dOLj-22" style="rounded=0;orthogonalLoop=1;jettySize=auto;html=1;exitX=0;exitY=0.3333333333333333;exitDx=0;exitDy=0;exitPerimeter=0;entryX=1;entryY=0.5;entryDx=0;entryDy=0;endArrow=none;endFill=0;" parent="1" source="_-qtAuHiCCSlVKN4dOLj-18" target="_-qtAuHiCCSlVKN4dOLj-2" edge="1">
          <mxGeometry relative="1" as="geometry" />
        </mxCell>
        <mxCell id="_-qtAuHiCCSlVKN4dOLj-18" value="Database" style="shape=umlActor;html=1;verticalLabelPosition=bottom;verticalAlign=top;align=center;fontSize=16;" parent="1" vertex="1">
          <mxGeometry x="650" y="410" width="30" height="60" as="geometry" />
        </mxCell>
        <mxCell id="_-qtAuHiCCSlVKN4dOLj-23" style="rounded=0;orthogonalLoop=1;jettySize=auto;html=1;exitX=0;exitY=0.3333333333333333;exitDx=0;exitDy=0;exitPerimeter=0;entryX=1;entryY=0.5;entryDx=0;entryDy=0;endArrow=none;endFill=0;" parent="1" source="_-qtAuHiCCSlVKN4dOLj-20" target="_-qtAuHiCCSlVKN4dOLj-5" edge="1">
          <mxGeometry relative="1" as="geometry" />
        </mxCell>
        <mxCell id="_-qtAuHiCCSlVKN4dOLj-27" style="rounded=0;orthogonalLoop=1;jettySize=auto;html=1;entryX=1;entryY=0.5;entryDx=0;entryDy=0;endArrow=none;endFill=0;" parent="1" source="_-qtAuHiCCSlVKN4dOLj-20" target="_-qtAuHiCCSlVKN4dOLj-6" edge="1">
          <mxGeometry relative="1" as="geometry" />
        </mxCell>
        <mxCell id="_-qtAuHiCCSlVKN4dOLj-28" style="rounded=0;orthogonalLoop=1;jettySize=auto;html=1;entryX=1;entryY=0.5;entryDx=0;entryDy=0;endArrow=none;endFill=0;" parent="1" source="_-qtAuHiCCSlVKN4dOLj-20" target="_-qtAuHiCCSlVKN4dOLj-7" edge="1">
          <mxGeometry relative="1" as="geometry" />
        </mxCell>
        <mxCell id="_-qtAuHiCCSlVKN4dOLj-20" value="Notification Service" style="shape=umlActor;html=1;verticalLabelPosition=bottom;verticalAlign=top;align=center;fontSize=16;" parent="1" vertex="1">
          <mxGeometry x="650" y="560" width="30" height="60" as="geometry" />
        </mxCell>
        <mxCell id="_-qtAuHiCCSlVKN4dOLj-26" style="rounded=0;orthogonalLoop=1;jettySize=auto;html=1;entryX=0;entryY=0.5;entryDx=0;entryDy=0;endArrow=none;endFill=0;exitX=1;exitY=0.3333333333333333;exitDx=0;exitDy=0;exitPerimeter=0;" parent="1" source="_-qtAuHiCCSlVKN4dOLj-25" target="_-qtAuHiCCSlVKN4dOLj-8" edge="1">
          <mxGeometry relative="1" as="geometry" />
        </mxCell>
        <mxCell id="_-qtAuHiCCSlVKN4dOLj-33" style="rounded=0;orthogonalLoop=1;jettySize=auto;html=1;entryX=0;entryY=0.5;entryDx=0;entryDy=0;endArrow=none;endFill=0;exitX=1;exitY=0.3333333333333333;exitDx=0;exitDy=0;exitPerimeter=0;" parent="1" source="_-qtAuHiCCSlVKN4dOLj-25" target="_-qtAuHiCCSlVKN4dOLj-30" edge="1">
          <mxGeometry relative="1" as="geometry" />
        </mxCell>
        <mxCell id="_-qtAuHiCCSlVKN4dOLj-25" value="&lt;font style=&quot;font-size: 16px;&quot;&gt;User&lt;/font&gt;" style="shape=umlActor;html=1;verticalLabelPosition=bottom;verticalAlign=top;align=center;" parent="1" vertex="1">
          <mxGeometry x="70" y="590" width="30" height="60" as="geometry" />
        </mxCell>
        <mxCell id="_-qtAuHiCCSlVKN4dOLj-30" value="Receives Notification" style="ellipse;whiteSpace=wrap;html=1;fontSize=16;" parent="1" vertex="1">
          <mxGeometry x="300" y="880" width="200" height="70" as="geometry" />
        </mxCell>
        <mxCell id="_-qtAuHiCCSlVKN4dOLj-31" value="&amp;lt;&amp;lt;include&amp;gt;&amp;gt;" style="edgeStyle=none;html=1;endArrow=open;verticalAlign=middle;dashed=1;labelBackgroundColor=none;rounded=0;exitX=0.5;exitY=1;exitDx=0;exitDy=0;entryX=0.5;entryY=0;entryDx=0;entryDy=0;fontSize=16;" parent="1" source="_-qtAuHiCCSlVKN4dOLj-7" target="_-qtAuHiCCSlVKN4dOLj-30" edge="1">
          <mxGeometry width="160" relative="1" as="geometry">
            <mxPoint x="40" y="830" as="sourcePoint" />
            <mxPoint x="200" y="830" as="targetPoint" />
          </mxGeometry>
        </mxCell>
        <mxCell id="_-qtAuHiCCSlVKN4dOLj-32" value="&amp;lt;&amp;lt;extend&amp;gt;&amp;gt;" style="edgeStyle=none;html=1;startArrow=open;endArrow=none;startSize=12;verticalAlign=middle;dashed=1;labelBackgroundColor=none;rounded=0;entryX=0.5;entryY=1;entryDx=0;entryDy=0;exitX=0.5;exitY=0;exitDx=0;exitDy=0;fontSize=16;" parent="1" source="_-qtAuHiCCSlVKN4dOLj-8" target="_-qtAuHiCCSlVKN4dOLj-30" edge="1">
          <mxGeometry width="160" relative="1" as="geometry">
            <mxPoint x="170" y="970" as="sourcePoint" />
            <mxPoint x="330" y="970" as="targetPoint" />
          </mxGeometry>
        </mxCell>
      </root>
    </mxGraphModel>
  </diagram>
  <diagram name="Manage Reminders" id="opu9LXOiDdulIpqxykQW">
    <mxGraphModel dx="1050" dy="522" grid="1" gridSize="10" guides="1" tooltips="1" connect="1" arrows="1" fold="1" page="1" pageScale="1" pageWidth="827" pageHeight="1169" math="0" shadow="0">
      <root>
        <mxCell id="TYFwRxa_XZ7bVGTP5NYN-0" />
        <mxCell id="TYFwRxa_XZ7bVGTP5NYN-1" parent="TYFwRxa_XZ7bVGTP5NYN-0" />
        <mxCell id="TYFwRxa_XZ7bVGTP5NYN-2" value="Manage Medication Reminders" style="shape=rect;html=1;verticalAlign=top;fontStyle=1;whiteSpace=wrap;align=center;fontSize=16;" parent="TYFwRxa_XZ7bVGTP5NYN-1" vertex="1">
          <mxGeometry x="245" y="190" width="310" height="670" as="geometry" />
        </mxCell>
        <mxCell id="TYFwRxa_XZ7bVGTP5NYN-3" value="Get Reminders" style="ellipse;whiteSpace=wrap;html=1;fontSize=16;" parent="TYFwRxa_XZ7bVGTP5NYN-1" vertex="1">
          <mxGeometry x="300" y="250" width="200" height="70" as="geometry" />
        </mxCell>
        <mxCell id="TYFwRxa_XZ7bVGTP5NYN-4" value="Populates Medication Reminders" style="ellipse;whiteSpace=wrap;html=1;fontSize=16;" parent="TYFwRxa_XZ7bVGTP5NYN-1" vertex="1">
          <mxGeometry x="300" y="370" width="200" height="70" as="geometry" />
        </mxCell>
        <mxCell id="TYFwRxa_XZ7bVGTP5NYN-5" value="Manages Reminders" style="ellipse;whiteSpace=wrap;html=1;fontSize=16;" parent="TYFwRxa_XZ7bVGTP5NYN-1" vertex="1">
          <mxGeometry x="300" y="500" width="200" height="70" as="geometry" />
        </mxCell>
        <mxCell id="TYFwRxa_XZ7bVGTP5NYN-6" value="Synchronises Changes" style="ellipse;whiteSpace=wrap;html=1;fontSize=16;" parent="TYFwRxa_XZ7bVGTP5NYN-1" vertex="1">
          <mxGeometry x="300" y="630" width="200" height="70" as="geometry" />
        </mxCell>
        <mxCell id="TYFwRxa_XZ7bVGTP5NYN-7" value="Repopulates Medication Reminders" style="ellipse;whiteSpace=wrap;html=1;fontSize=16;" parent="TYFwRxa_XZ7bVGTP5NYN-1" vertex="1">
          <mxGeometry x="300" y="760" width="200" height="70" as="geometry" />
        </mxCell>
        <mxCell id="TYFwRxa_XZ7bVGTP5NYN-9" value="&amp;lt;&amp;lt;include&amp;gt;&amp;gt;" style="edgeStyle=none;html=1;endArrow=open;verticalAlign=middle;dashed=1;labelBackgroundColor=none;rounded=0;exitX=0.5;exitY=1;exitDx=0;exitDy=0;entryX=0.5;entryY=0;entryDx=0;entryDy=0;fontSize=16;" parent="TYFwRxa_XZ7bVGTP5NYN-1" source="TYFwRxa_XZ7bVGTP5NYN-3" target="TYFwRxa_XZ7bVGTP5NYN-4" edge="1">
          <mxGeometry width="160" relative="1" as="geometry">
            <mxPoint x="480" y="360" as="sourcePoint" />
            <mxPoint x="640" y="360" as="targetPoint" />
            <mxPoint as="offset" />
          </mxGeometry>
        </mxCell>
        <mxCell id="TYFwRxa_XZ7bVGTP5NYN-11" value="&amp;lt;&amp;lt;include&amp;gt;&amp;gt;" style="edgeStyle=none;html=1;endArrow=open;verticalAlign=middle;dashed=1;labelBackgroundColor=none;rounded=0;exitX=0.5;exitY=1;exitDx=0;exitDy=0;fontSize=16;" parent="TYFwRxa_XZ7bVGTP5NYN-1" source="TYFwRxa_XZ7bVGTP5NYN-6" target="TYFwRxa_XZ7bVGTP5NYN-7" edge="1">
          <mxGeometry width="160" relative="1" as="geometry">
            <mxPoint x="210" y="670" as="sourcePoint" />
            <mxPoint x="370" y="670" as="targetPoint" />
          </mxGeometry>
        </mxCell>
        <mxCell id="TYFwRxa_XZ7bVGTP5NYN-12" value="&amp;lt;&amp;lt;include&amp;gt;&amp;gt;" style="edgeStyle=none;html=1;endArrow=open;verticalAlign=middle;dashed=1;labelBackgroundColor=none;rounded=0;exitX=0.5;exitY=1;exitDx=0;exitDy=0;entryX=0.5;entryY=0;entryDx=0;entryDy=0;fontSize=16;" parent="TYFwRxa_XZ7bVGTP5NYN-1" source="TYFwRxa_XZ7bVGTP5NYN-5" target="TYFwRxa_XZ7bVGTP5NYN-6" edge="1">
          <mxGeometry width="160" relative="1" as="geometry">
            <mxPoint x="200" y="620" as="sourcePoint" />
            <mxPoint x="360" y="620" as="targetPoint" />
          </mxGeometry>
        </mxCell>
        <mxCell id="C-jEK_ZNoUhpasjh245_-2" style="rounded=0;orthogonalLoop=1;jettySize=auto;html=1;entryX=1;entryY=0.5;entryDx=0;entryDy=0;endArrow=none;endFill=0;" parent="TYFwRxa_XZ7bVGTP5NYN-1" source="TYFwRxa_XZ7bVGTP5NYN-14" target="TYFwRxa_XZ7bVGTP5NYN-4" edge="1">
          <mxGeometry relative="1" as="geometry" />
        </mxCell>
        <mxCell id="C-jEK_ZNoUhpasjh245_-4" style="rounded=0;orthogonalLoop=1;jettySize=auto;html=1;entryX=1;entryY=0.5;entryDx=0;entryDy=0;endArrow=none;endFill=0;" parent="TYFwRxa_XZ7bVGTP5NYN-1" source="TYFwRxa_XZ7bVGTP5NYN-14" target="TYFwRxa_XZ7bVGTP5NYN-6" edge="1">
          <mxGeometry relative="1" as="geometry" />
        </mxCell>
        <mxCell id="C-jEK_ZNoUhpasjh245_-5" style="rounded=0;orthogonalLoop=1;jettySize=auto;html=1;entryX=1;entryY=0.5;entryDx=0;entryDy=0;endArrow=none;endFill=0;" parent="TYFwRxa_XZ7bVGTP5NYN-1" source="TYFwRxa_XZ7bVGTP5NYN-14" target="TYFwRxa_XZ7bVGTP5NYN-7" edge="1">
          <mxGeometry relative="1" as="geometry" />
        </mxCell>
        <mxCell id="TYFwRxa_XZ7bVGTP5NYN-14" value="Activity Service" style="shape=umlActor;html=1;verticalLabelPosition=bottom;verticalAlign=top;align=center;fontSize=16;" parent="TYFwRxa_XZ7bVGTP5NYN-1" vertex="1">
          <mxGeometry x="650" y="650" width="30" height="60" as="geometry" />
        </mxCell>
        <mxCell id="C-jEK_ZNoUhpasjh245_-1" style="rounded=0;orthogonalLoop=1;jettySize=auto;html=1;entryX=1;entryY=0.5;entryDx=0;entryDy=0;endArrow=none;endFill=0;" parent="TYFwRxa_XZ7bVGTP5NYN-1" source="TYFwRxa_XZ7bVGTP5NYN-16" target="TYFwRxa_XZ7bVGTP5NYN-3" edge="1">
          <mxGeometry relative="1" as="geometry" />
        </mxCell>
        <mxCell id="C-jEK_ZNoUhpasjh245_-8" style="rounded=0;orthogonalLoop=1;jettySize=auto;html=1;entryX=1;entryY=0.5;entryDx=0;entryDy=0;endArrow=none;endFill=0;" parent="TYFwRxa_XZ7bVGTP5NYN-1" source="TYFwRxa_XZ7bVGTP5NYN-16" target="TYFwRxa_XZ7bVGTP5NYN-6" edge="1">
          <mxGeometry relative="1" as="geometry" />
        </mxCell>
        <mxCell id="TYFwRxa_XZ7bVGTP5NYN-16" value="Database" style="shape=umlActor;html=1;verticalLabelPosition=bottom;verticalAlign=top;align=center;fontSize=16;" parent="TYFwRxa_XZ7bVGTP5NYN-1" vertex="1">
          <mxGeometry x="650" y="330" width="30" height="60" as="geometry" />
        </mxCell>
        <mxCell id="C-jEK_ZNoUhpasjh245_-3" style="rounded=0;orthogonalLoop=1;jettySize=auto;html=1;entryX=0;entryY=0.5;entryDx=0;entryDy=0;endArrow=none;endFill=0;" parent="TYFwRxa_XZ7bVGTP5NYN-1" source="TYFwRxa_XZ7bVGTP5NYN-23" target="TYFwRxa_XZ7bVGTP5NYN-5" edge="1">
          <mxGeometry relative="1" as="geometry" />
        </mxCell>
        <mxCell id="TYFwRxa_XZ7bVGTP5NYN-23" value="&lt;font style=&quot;font-size: 16px;&quot;&gt;User&lt;/font&gt;" style="shape=umlActor;html=1;verticalLabelPosition=bottom;verticalAlign=top;align=center;" parent="TYFwRxa_XZ7bVGTP5NYN-1" vertex="1">
          <mxGeometry x="70" y="590" width="30" height="60" as="geometry" />
        </mxCell>
        <mxCell id="C-jEK_ZNoUhpasjh245_-0" value="&amp;lt;&amp;lt;include&amp;gt;&amp;gt;" style="html=1;verticalAlign=middle;labelBackgroundColor=none;endArrow=open;endFill=0;dashed=1;rounded=0;exitX=0.5;exitY=1;exitDx=0;exitDy=0;fontSize=16;" parent="TYFwRxa_XZ7bVGTP5NYN-1" source="TYFwRxa_XZ7bVGTP5NYN-4" target="TYFwRxa_XZ7bVGTP5NYN-5" edge="1">
          <mxGeometry width="160" relative="1" as="geometry">
            <mxPoint x="90" y="380" as="sourcePoint" />
            <mxPoint x="250" y="380" as="targetPoint" />
          </mxGeometry>
        </mxCell>
      </root>
    </mxGraphModel>
  </diagram>
  <diagram name="Reminder Tracker" id="Ez80oZNSbkAsb_eScbtD">
    <mxGraphModel dx="1050" dy="522" grid="1" gridSize="10" guides="1" tooltips="1" connect="1" arrows="1" fold="1" page="1" pageScale="1" pageWidth="827" pageHeight="1169" math="0" shadow="0">
      <root>
        <mxCell id="vtHr7l8KxDz-96qrSYud-0" />
        <mxCell id="vtHr7l8KxDz-96qrSYud-1" parent="vtHr7l8KxDz-96qrSYud-0" />
        <mxCell id="vtHr7l8KxDz-96qrSYud-2" value="Track Medication Reminders" style="shape=rect;html=1;verticalAlign=top;fontStyle=1;whiteSpace=wrap;align=center;fontSize=16;" parent="vtHr7l8KxDz-96qrSYud-1" vertex="1">
          <mxGeometry x="220" y="190" width="350" height="930" as="geometry" />
        </mxCell>
        <mxCell id="vtHr7l8KxDz-96qrSYud-3" value="Get Reminders" style="ellipse;whiteSpace=wrap;html=1;fontSize=16;" parent="vtHr7l8KxDz-96qrSYud-1" vertex="1">
          <mxGeometry x="300" y="250" width="200" height="70" as="geometry" />
        </mxCell>
        <mxCell id="vtHr7l8KxDz-96qrSYud-4" value="Populates Medication Reminders" style="ellipse;whiteSpace=wrap;html=1;fontSize=16;" parent="vtHr7l8KxDz-96qrSYud-1" vertex="1">
          <mxGeometry x="300" y="370" width="200" height="70" as="geometry" />
        </mxCell>
        <mxCell id="vtHr7l8KxDz-96qrSYud-5" value="Sees Reminders" style="ellipse;whiteSpace=wrap;html=1;fontSize=16;" parent="vtHr7l8KxDz-96qrSYud-1" vertex="1">
          <mxGeometry x="300" y="500" width="200" height="70" as="geometry" />
        </mxCell>
        <mxCell id="BShyNsIq8IMBb1o5bEyu-3" value="" style="edgeStyle=orthogonalEdgeStyle;rounded=0;orthogonalLoop=1;jettySize=auto;html=1;" parent="vtHr7l8KxDz-96qrSYud-1" source="vtHr7l8KxDz-96qrSYud-6" target="BShyNsIq8IMBb1o5bEyu-1" edge="1">
          <mxGeometry relative="1" as="geometry" />
        </mxCell>
        <mxCell id="vtHr7l8KxDz-96qrSYud-6" value="Marks Reminder Taken" style="ellipse;whiteSpace=wrap;html=1;fontSize=16;" parent="vtHr7l8KxDz-96qrSYud-1" vertex="1">
          <mxGeometry x="300" y="630" width="200" height="70" as="geometry" />
        </mxCell>
        <mxCell id="vtHr7l8KxDz-96qrSYud-7" value="Repopulates Medication Reminders" style="ellipse;whiteSpace=wrap;html=1;fontSize=16;" parent="vtHr7l8KxDz-96qrSYud-1" vertex="1">
          <mxGeometry x="300" y="1040" width="200" height="70" as="geometry" />
        </mxCell>
        <mxCell id="vtHr7l8KxDz-96qrSYud-8" value="&amp;lt;&amp;lt;include&amp;gt;&amp;gt;" style="edgeStyle=none;html=1;endArrow=open;verticalAlign=middle;dashed=1;labelBackgroundColor=none;rounded=0;exitX=0.5;exitY=1;exitDx=0;exitDy=0;entryX=0.5;entryY=0;entryDx=0;entryDy=0;fontSize=16;" parent="vtHr7l8KxDz-96qrSYud-1" source="vtHr7l8KxDz-96qrSYud-3" target="vtHr7l8KxDz-96qrSYud-4" edge="1">
          <mxGeometry width="160" relative="1" as="geometry">
            <mxPoint x="480" y="360" as="sourcePoint" />
            <mxPoint x="640" y="360" as="targetPoint" />
            <mxPoint as="offset" />
          </mxGeometry>
        </mxCell>
        <mxCell id="vtHr7l8KxDz-96qrSYud-10" value="&amp;lt;&amp;lt;include&amp;gt;&amp;gt;" style="edgeStyle=none;html=1;endArrow=open;verticalAlign=middle;dashed=1;labelBackgroundColor=none;rounded=0;exitX=0.5;exitY=1;exitDx=0;exitDy=0;entryX=0.5;entryY=0;entryDx=0;entryDy=0;fontSize=16;" parent="vtHr7l8KxDz-96qrSYud-1" source="vtHr7l8KxDz-96qrSYud-5" target="vtHr7l8KxDz-96qrSYud-6" edge="1">
          <mxGeometry width="160" relative="1" as="geometry">
            <mxPoint x="200" y="620" as="sourcePoint" />
            <mxPoint x="360" y="620" as="targetPoint" />
          </mxGeometry>
        </mxCell>
        <mxCell id="vtHr7l8KxDz-96qrSYud-11" style="rounded=0;orthogonalLoop=1;jettySize=auto;html=1;entryX=1;entryY=0.5;entryDx=0;entryDy=0;endArrow=none;endFill=0;" parent="vtHr7l8KxDz-96qrSYud-1" source="vtHr7l8KxDz-96qrSYud-14" target="vtHr7l8KxDz-96qrSYud-4" edge="1">
          <mxGeometry relative="1" as="geometry" />
        </mxCell>
        <mxCell id="vtHr7l8KxDz-96qrSYud-13" style="rounded=0;orthogonalLoop=1;jettySize=auto;html=1;entryX=1;entryY=0.5;entryDx=0;entryDy=0;endArrow=none;endFill=0;" parent="vtHr7l8KxDz-96qrSYud-1" source="vtHr7l8KxDz-96qrSYud-14" target="vtHr7l8KxDz-96qrSYud-7" edge="1">
          <mxGeometry relative="1" as="geometry" />
        </mxCell>
        <mxCell id="vtHr7l8KxDz-96qrSYud-14" value="Activity Service" style="shape=umlActor;html=1;verticalLabelPosition=bottom;verticalAlign=top;align=center;fontSize=16;" parent="vtHr7l8KxDz-96qrSYud-1" vertex="1">
          <mxGeometry x="650" y="650" width="30" height="60" as="geometry" />
        </mxCell>
        <mxCell id="vtHr7l8KxDz-96qrSYud-15" style="rounded=0;orthogonalLoop=1;jettySize=auto;html=1;entryX=1;entryY=0.5;entryDx=0;entryDy=0;endArrow=none;endFill=0;" parent="vtHr7l8KxDz-96qrSYud-1" source="vtHr7l8KxDz-96qrSYud-17" target="vtHr7l8KxDz-96qrSYud-3" edge="1">
          <mxGeometry relative="1" as="geometry" />
        </mxCell>
        <mxCell id="BShyNsIq8IMBb1o5bEyu-11" style="rounded=0;orthogonalLoop=1;jettySize=auto;html=1;entryX=1;entryY=0.5;entryDx=0;entryDy=0;endArrow=none;endFill=0;" parent="vtHr7l8KxDz-96qrSYud-1" source="vtHr7l8KxDz-96qrSYud-17" target="BShyNsIq8IMBb1o5bEyu-10" edge="1">
          <mxGeometry relative="1" as="geometry" />
        </mxCell>
        <mxCell id="vtHr7l8KxDz-96qrSYud-17" value="Database" style="shape=umlActor;html=1;verticalLabelPosition=bottom;verticalAlign=top;align=center;fontSize=16;" parent="vtHr7l8KxDz-96qrSYud-1" vertex="1">
          <mxGeometry x="650" y="330" width="30" height="60" as="geometry" />
        </mxCell>
        <mxCell id="BShyNsIq8IMBb1o5bEyu-6" style="rounded=0;orthogonalLoop=1;jettySize=auto;html=1;entryX=0;entryY=0.5;entryDx=0;entryDy=0;endArrow=none;endFill=0;" parent="vtHr7l8KxDz-96qrSYud-1" source="vtHr7l8KxDz-96qrSYud-19" target="vtHr7l8KxDz-96qrSYud-5" edge="1">
          <mxGeometry relative="1" as="geometry" />
        </mxCell>
        <mxCell id="BShyNsIq8IMBb1o5bEyu-7" style="rounded=0;orthogonalLoop=1;jettySize=auto;html=1;entryX=0;entryY=1;entryDx=0;entryDy=0;endArrow=none;endFill=0;" parent="vtHr7l8KxDz-96qrSYud-1" source="vtHr7l8KxDz-96qrSYud-19" target="vtHr7l8KxDz-96qrSYud-6" edge="1">
          <mxGeometry relative="1" as="geometry" />
        </mxCell>
        <mxCell id="BShyNsIq8IMBb1o5bEyu-8" style="rounded=0;orthogonalLoop=1;jettySize=auto;html=1;entryX=0;entryY=0;entryDx=0;entryDy=0;endArrow=none;endFill=0;" parent="vtHr7l8KxDz-96qrSYud-1" source="vtHr7l8KxDz-96qrSYud-19" target="BShyNsIq8IMBb1o5bEyu-1" edge="1">
          <mxGeometry relative="1" as="geometry" />
        </mxCell>
        <mxCell id="BShyNsIq8IMBb1o5bEyu-9" style="rounded=0;orthogonalLoop=1;jettySize=auto;html=1;entryX=0;entryY=0.5;entryDx=0;entryDy=0;endArrow=none;endFill=0;" parent="vtHr7l8KxDz-96qrSYud-1" source="vtHr7l8KxDz-96qrSYud-19" target="BShyNsIq8IMBb1o5bEyu-0" edge="1">
          <mxGeometry relative="1" as="geometry" />
        </mxCell>
        <mxCell id="vtHr7l8KxDz-96qrSYud-19" value="&lt;font style=&quot;font-size: 16px;&quot;&gt;User&lt;/font&gt;" style="shape=umlActor;html=1;verticalLabelPosition=bottom;verticalAlign=top;align=center;" parent="vtHr7l8KxDz-96qrSYud-1" vertex="1">
          <mxGeometry x="70" y="590" width="30" height="60" as="geometry" />
        </mxCell>
        <mxCell id="vtHr7l8KxDz-96qrSYud-20" value="&amp;lt;&amp;lt;include&amp;gt;&amp;gt;" style="html=1;verticalAlign=middle;labelBackgroundColor=none;endArrow=open;endFill=0;dashed=1;rounded=0;exitX=0.5;exitY=1;exitDx=0;exitDy=0;fontSize=16;" parent="vtHr7l8KxDz-96qrSYud-1" source="vtHr7l8KxDz-96qrSYud-4" target="vtHr7l8KxDz-96qrSYud-5" edge="1">
          <mxGeometry width="160" relative="1" as="geometry">
            <mxPoint x="90" y="380" as="sourcePoint" />
            <mxPoint x="250" y="380" as="targetPoint" />
          </mxGeometry>
        </mxCell>
        <mxCell id="BShyNsIq8IMBb1o5bEyu-0" value="Snoozes Reminder" style="ellipse;whiteSpace=wrap;html=1;fontSize=16;" parent="vtHr7l8KxDz-96qrSYud-1" vertex="1">
          <mxGeometry x="300" y="850" width="200" height="70" as="geometry" />
        </mxCell>
        <mxCell id="BShyNsIq8IMBb1o5bEyu-1" value="Marks Reminder Not&amp;nbsp;&lt;div&gt;Taken&lt;/div&gt;" style="ellipse;whiteSpace=wrap;html=1;fontSize=16;" parent="vtHr7l8KxDz-96qrSYud-1" vertex="1">
          <mxGeometry x="300" y="740" width="200" height="70" as="geometry" />
        </mxCell>
        <mxCell id="BShyNsIq8IMBb1o5bEyu-2" value="&amp;lt;&amp;lt;include&amp;gt;&amp;gt;" style="html=1;verticalAlign=bottom;labelBackgroundColor=none;endArrow=open;endFill=0;dashed=1;rounded=0;entryX=0;entryY=0.5;entryDx=0;entryDy=0;fontSize=16;edgeStyle=orthogonalEdgeStyle;" parent="vtHr7l8KxDz-96qrSYud-1" target="BShyNsIq8IMBb1o5bEyu-1" edge="1">
          <mxGeometry width="160" relative="1" as="geometry">
            <mxPoint x="300" y="535" as="sourcePoint" />
            <mxPoint x="320" y="775" as="targetPoint" />
            <Array as="points">
              <mxPoint x="270" y="535" />
              <mxPoint x="270" y="775" />
            </Array>
            <mxPoint as="offset" />
          </mxGeometry>
        </mxCell>
        <mxCell id="BShyNsIq8IMBb1o5bEyu-5" value="&amp;lt;&amp;lt;extend&amp;gt;&amp;gt;" style="html=1;verticalAlign=bottom;labelBackgroundColor=none;endArrow=open;endFill=0;dashed=1;rounded=0;exitX=1;exitY=0.5;exitDx=0;exitDy=0;entryX=1;entryY=0.5;entryDx=0;entryDy=0;edgeStyle=orthogonalEdgeStyle;fontSize=16;" parent="vtHr7l8KxDz-96qrSYud-1" source="vtHr7l8KxDz-96qrSYud-5" target="BShyNsIq8IMBb1o5bEyu-0" edge="1">
          <mxGeometry width="160" relative="1" as="geometry">
            <mxPoint x="500" y="720" as="sourcePoint" />
            <mxPoint x="660" y="720" as="targetPoint" />
            <Array as="points">
              <mxPoint x="520" y="535" />
              <mxPoint x="520" y="885" />
            </Array>
          </mxGeometry>
        </mxCell>
        <mxCell id="BShyNsIq8IMBb1o5bEyu-10" value="Changes Synchronised" style="ellipse;whiteSpace=wrap;html=1;fontSize=16;" parent="vtHr7l8KxDz-96qrSYud-1" vertex="1">
          <mxGeometry x="300" y="950" width="200" height="70" as="geometry" />
        </mxCell>
      </root>
    </mxGraphModel>
  </diagram>
  <diagram id="80o6nRLUJfI9DyHG9vXT" name="Receiving Timely Notifications by sending Alarms">
    <mxGraphModel dx="1050" dy="522" grid="1" gridSize="10" guides="1" tooltips="1" connect="1" arrows="1" fold="1" page="1" pageScale="1" pageWidth="827" pageHeight="1169" math="0" shadow="0">
      <root>
        <mxCell id="0" />
        <mxCell id="1" parent="0" />
        <mxCell id="lPPpHJNWQw5s5m9NbLX2-1" value="Receiving Notifications for Medication Reminders" style="shape=rect;html=1;verticalAlign=top;fontStyle=1;whiteSpace=wrap;align=center;fontSize=16;" parent="1" vertex="1">
          <mxGeometry x="234" y="81" width="316" height="1000" as="geometry" />
        </mxCell>
        <mxCell id="lPPpHJNWQw5s5m9NbLX2-2" value="Get Reminders" style="ellipse;whiteSpace=wrap;html=1;fontSize=16;" parent="1" vertex="1">
          <mxGeometry x="289" y="141" width="200" height="70" as="geometry" />
        </mxCell>
        <mxCell id="lPPpHJNWQw5s5m9NbLX2-3" value="Find Medications&amp;nbsp;&lt;div&gt;not Taken&lt;/div&gt;" style="ellipse;whiteSpace=wrap;html=1;fontSize=16;" parent="1" vertex="1">
          <mxGeometry x="289" y="261" width="200" height="70" as="geometry" />
        </mxCell>
        <mxCell id="lPPpHJNWQw5s5m9NbLX2-4" value="Create Alarm" style="ellipse;whiteSpace=wrap;html=1;fontSize=16;" parent="1" vertex="1">
          <mxGeometry x="289" y="391" width="200" height="70" as="geometry" />
        </mxCell>
        <mxCell id="lPPpHJNWQw5s5m9NbLX2-5" value="Start Pending Intent" style="ellipse;whiteSpace=wrap;html=1;fontSize=16;" parent="1" vertex="1">
          <mxGeometry x="289" y="521" width="200" height="70" as="geometry" />
        </mxCell>
        <mxCell id="lPPpHJNWQw5s5m9NbLX2-6" value="Receives Pending Intent" style="ellipse;whiteSpace=wrap;html=1;fontSize=16;" parent="1" vertex="1">
          <mxGeometry x="289" y="651" width="200" height="70" as="geometry" />
        </mxCell>
        <mxCell id="lPPpHJNWQw5s5m9NbLX2-7" value="Receives Notification" style="ellipse;whiteSpace=wrap;html=1;fontSize=16;" parent="1" vertex="1">
          <mxGeometry x="289" y="891" width="200" height="70" as="geometry" />
        </mxCell>
        <mxCell id="lPPpHJNWQw5s5m9NbLX2-8" value="&amp;lt;&amp;lt;include&amp;gt;&amp;gt;" style="edgeStyle=none;html=1;endArrow=open;verticalAlign=middle;dashed=1;labelBackgroundColor=none;rounded=0;exitX=0.5;exitY=1;exitDx=0;exitDy=0;entryX=0.5;entryY=0;entryDx=0;entryDy=0;fontSize=16;" parent="1" source="lPPpHJNWQw5s5m9NbLX2-2" target="lPPpHJNWQw5s5m9NbLX2-3" edge="1">
          <mxGeometry width="160" relative="1" as="geometry">
            <mxPoint x="469" y="251" as="sourcePoint" />
            <mxPoint x="629" y="251" as="targetPoint" />
            <mxPoint as="offset" />
          </mxGeometry>
        </mxCell>
        <mxCell id="lPPpHJNWQw5s5m9NbLX2-10" value="&amp;lt;&amp;lt;include&amp;gt;&amp;gt;" style="edgeStyle=none;html=1;endArrow=open;verticalAlign=middle;dashed=1;labelBackgroundColor=none;rounded=0;exitX=0.5;exitY=1;exitDx=0;exitDy=0;fontSize=16;" parent="1" source="lPPpHJNWQw5s5m9NbLX2-5" target="lPPpHJNWQw5s5m9NbLX2-6" edge="1">
          <mxGeometry width="160" relative="1" as="geometry">
            <mxPoint x="199" y="561" as="sourcePoint" />
            <mxPoint x="359" y="561" as="targetPoint" />
          </mxGeometry>
        </mxCell>
        <mxCell id="lPPpHJNWQw5s5m9NbLX2-11" value="&amp;lt;&amp;lt;include&amp;gt;&amp;gt;" style="edgeStyle=none;html=1;endArrow=open;verticalAlign=middle;dashed=1;labelBackgroundColor=none;rounded=0;exitX=0.5;exitY=1;exitDx=0;exitDy=0;entryX=0.5;entryY=0;entryDx=0;entryDy=0;fontSize=16;" parent="1" source="lPPpHJNWQw5s5m9NbLX2-4" target="lPPpHJNWQw5s5m9NbLX2-5" edge="1">
          <mxGeometry width="160" relative="1" as="geometry">
            <mxPoint x="412" y="461" as="sourcePoint" />
            <mxPoint x="412" y="521" as="targetPoint" />
          </mxGeometry>
        </mxCell>
        <mxCell id="lPPpHJNWQw5s5m9NbLX2-12" style="rounded=0;orthogonalLoop=1;jettySize=auto;html=1;entryX=1;entryY=0.5;entryDx=0;entryDy=0;strokeColor=default;startArrow=none;startFill=0;endArrow=none;endFill=0;exitX=0;exitY=0.3333333333333333;exitDx=0;exitDy=0;exitPerimeter=0;" parent="1" source="lPPpHJNWQw5s5m9NbLX2-13" target="lPPpHJNWQw5s5m9NbLX2-2" edge="1">
          <mxGeometry relative="1" as="geometry" />
        </mxCell>
        <mxCell id="3G07l8XHtuYA0XYZ3VTv-5" style="rounded=0;orthogonalLoop=1;jettySize=auto;html=1;entryX=1;entryY=0.5;entryDx=0;entryDy=0;endArrow=none;endFill=0;exitX=0;exitY=0.3333333333333333;exitDx=0;exitDy=0;exitPerimeter=0;" parent="1" source="lPPpHJNWQw5s5m9NbLX2-13" target="lPPpHJNWQw5s5m9NbLX2-3" edge="1">
          <mxGeometry relative="1" as="geometry" />
        </mxCell>
        <mxCell id="lPPpHJNWQw5s5m9NbLX2-13" value="Activity Service" style="shape=umlActor;html=1;verticalLabelPosition=bottom;verticalAlign=top;align=center;fontSize=16;" parent="1" vertex="1">
          <mxGeometry x="639" y="151" width="30" height="60" as="geometry" />
        </mxCell>
        <mxCell id="lPPpHJNWQw5s5m9NbLX2-14" style="rounded=0;orthogonalLoop=1;jettySize=auto;html=1;exitX=0;exitY=0.3333333333333333;exitDx=0;exitDy=0;exitPerimeter=0;entryX=1;entryY=0.5;entryDx=0;entryDy=0;endArrow=none;endFill=0;" parent="1" source="lPPpHJNWQw5s5m9NbLX2-15" target="lPPpHJNWQw5s5m9NbLX2-2" edge="1">
          <mxGeometry relative="1" as="geometry" />
        </mxCell>
        <mxCell id="lPPpHJNWQw5s5m9NbLX2-15" value="Database" style="shape=umlActor;html=1;verticalLabelPosition=bottom;verticalAlign=top;align=center;fontSize=16;" parent="1" vertex="1">
          <mxGeometry x="639" y="301" width="30" height="60" as="geometry" />
        </mxCell>
        <mxCell id="lPPpHJNWQw5s5m9NbLX2-16" style="rounded=0;orthogonalLoop=1;jettySize=auto;html=1;exitX=0;exitY=0.3333333333333333;exitDx=0;exitDy=0;exitPerimeter=0;entryX=1;entryY=0.5;entryDx=0;entryDy=0;endArrow=none;endFill=0;" parent="1" source="lPPpHJNWQw5s5m9NbLX2-19" target="lPPpHJNWQw5s5m9NbLX2-4" edge="1">
          <mxGeometry relative="1" as="geometry" />
        </mxCell>
        <mxCell id="lPPpHJNWQw5s5m9NbLX2-17" style="rounded=0;orthogonalLoop=1;jettySize=auto;html=1;entryX=1;entryY=0.5;entryDx=0;entryDy=0;endArrow=none;endFill=0;" parent="1" source="lPPpHJNWQw5s5m9NbLX2-19" target="lPPpHJNWQw5s5m9NbLX2-5" edge="1">
          <mxGeometry relative="1" as="geometry" />
        </mxCell>
        <mxCell id="lPPpHJNWQw5s5m9NbLX2-18" style="rounded=0;orthogonalLoop=1;jettySize=auto;html=1;entryX=1;entryY=0.5;entryDx=0;entryDy=0;endArrow=none;endFill=0;exitX=0;exitY=0.3333333333333333;exitDx=0;exitDy=0;exitPerimeter=0;" parent="1" source="7nr2ErHlHW3V039BJi8v-1" target="lPPpHJNWQw5s5m9NbLX2-6" edge="1">
          <mxGeometry relative="1" as="geometry" />
        </mxCell>
        <mxCell id="lPPpHJNWQw5s5m9NbLX2-19" value="AlarmManager" style="shape=umlActor;html=1;verticalLabelPosition=bottom;verticalAlign=top;align=center;fontSize=16;" parent="1" vertex="1">
          <mxGeometry x="639" y="451" width="30" height="60" as="geometry" />
        </mxCell>
        <mxCell id="lPPpHJNWQw5s5m9NbLX2-20" style="rounded=0;orthogonalLoop=1;jettySize=auto;html=1;entryX=0;entryY=0.5;entryDx=0;entryDy=0;endArrow=none;endFill=0;exitX=1;exitY=0.3333333333333333;exitDx=0;exitDy=0;exitPerimeter=0;" parent="1" source="lPPpHJNWQw5s5m9NbLX2-22" target="lPPpHJNWQw5s5m9NbLX2-7" edge="1">
          <mxGeometry relative="1" as="geometry" />
        </mxCell>
        <mxCell id="3G07l8XHtuYA0XYZ3VTv-1" style="rounded=0;orthogonalLoop=1;jettySize=auto;html=1;entryX=0;entryY=0.5;entryDx=0;entryDy=0;endArrow=none;endFill=0;exitX=1;exitY=0.3333333333333333;exitDx=0;exitDy=0;exitPerimeter=0;" parent="1" source="lPPpHJNWQw5s5m9NbLX2-22" target="7nr2ErHlHW3V039BJi8v-4" edge="1">
          <mxGeometry relative="1" as="geometry" />
        </mxCell>
        <mxCell id="lPPpHJNWQw5s5m9NbLX2-22" value="&lt;font style=&quot;font-size: 16px;&quot;&gt;User&lt;/font&gt;" style="shape=umlActor;html=1;verticalLabelPosition=bottom;verticalAlign=top;align=center;" parent="1" vertex="1">
          <mxGeometry x="99" y="881" width="30" height="60" as="geometry" />
        </mxCell>
        <mxCell id="lPPpHJNWQw5s5m9NbLX2-23" value="Creates Notification" style="ellipse;whiteSpace=wrap;html=1;fontSize=16;" parent="1" vertex="1">
          <mxGeometry x="289" y="771" width="200" height="70" as="geometry" />
        </mxCell>
        <mxCell id="lPPpHJNWQw5s5m9NbLX2-24" value="&amp;lt;&amp;lt;include&amp;gt;&amp;gt;" style="edgeStyle=none;html=1;endArrow=open;verticalAlign=middle;dashed=1;labelBackgroundColor=none;rounded=0;exitX=0.5;exitY=1;exitDx=0;exitDy=0;entryX=0.5;entryY=0;entryDx=0;entryDy=0;fontSize=16;" parent="1" source="lPPpHJNWQw5s5m9NbLX2-6" target="lPPpHJNWQw5s5m9NbLX2-23" edge="1">
          <mxGeometry width="160" relative="1" as="geometry">
            <mxPoint x="29" y="721" as="sourcePoint" />
            <mxPoint x="189" y="721" as="targetPoint" />
          </mxGeometry>
        </mxCell>
        <mxCell id="7nr2ErHlHW3V039BJi8v-1" value="Broadcast Receiver" style="shape=umlActor;html=1;verticalLabelPosition=bottom;verticalAlign=top;align=center;fontSize=16;" parent="1" vertex="1">
          <mxGeometry x="639" y="581" width="30" height="60" as="geometry" />
        </mxCell>
        <mxCell id="7nr2ErHlHW3V039BJi8v-3" style="rounded=0;orthogonalLoop=1;jettySize=auto;html=1;entryX=1;entryY=0.5;entryDx=0;entryDy=0;endArrow=none;endFill=0;exitX=0;exitY=0.3333333333333333;exitDx=0;exitDy=0;exitPerimeter=0;" parent="1" source="7nr2ErHlHW3V039BJi8v-2" target="lPPpHJNWQw5s5m9NbLX2-23" edge="1">
          <mxGeometry relative="1" as="geometry" />
        </mxCell>
        <mxCell id="7nr2ErHlHW3V039BJi8v-2" value="Notification Service" style="shape=umlActor;html=1;verticalLabelPosition=bottom;verticalAlign=top;align=center;fontSize=16;" parent="1" vertex="1">
          <mxGeometry x="639" y="711" width="30" height="60" as="geometry" />
        </mxCell>
        <mxCell id="7nr2ErHlHW3V039BJi8v-4" value="Mark medication from&lt;div&gt;notification as taken&lt;/div&gt;" style="ellipse;whiteSpace=wrap;html=1;fontSize=16;" parent="1" vertex="1">
          <mxGeometry x="289" y="1001" width="200" height="70" as="geometry" />
        </mxCell>
        <mxCell id="7nr2ErHlHW3V039BJi8v-5" value="&amp;lt;&amp;lt;extend&amp;gt;&amp;gt;" style="edgeStyle=none;html=1;startArrow=open;endArrow=none;startSize=12;verticalAlign=middle;dashed=1;labelBackgroundColor=none;rounded=0;entryX=0.5;entryY=1;entryDx=0;entryDy=0;fontSize=15;" parent="1" source="7nr2ErHlHW3V039BJi8v-4" target="lPPpHJNWQw5s5m9NbLX2-7" edge="1">
          <mxGeometry width="160" relative="1" as="geometry">
            <mxPoint x="19" y="951" as="sourcePoint" />
            <mxPoint x="179" y="951" as="targetPoint" />
          </mxGeometry>
        </mxCell>
        <mxCell id="3G07l8XHtuYA0XYZ3VTv-2" value="&amp;lt;&amp;lt;include&amp;gt;&amp;gt;" style="edgeStyle=none;html=1;endArrow=open;verticalAlign=middle;dashed=1;labelBackgroundColor=none;rounded=0;exitX=0.5;exitY=1;exitDx=0;exitDy=0;entryX=0.5;entryY=0;entryDx=0;entryDy=0;fontSize=16;" parent="1" source="lPPpHJNWQw5s5m9NbLX2-23" target="lPPpHJNWQw5s5m9NbLX2-7" edge="1">
          <mxGeometry width="160" relative="1" as="geometry">
            <mxPoint x="16" y="530" as="sourcePoint" />
            <mxPoint x="176" y="530" as="targetPoint" />
          </mxGeometry>
        </mxCell>
        <mxCell id="3G07l8XHtuYA0XYZ3VTv-4" value="&amp;lt;&amp;lt;include&amp;gt;&amp;gt;" style="edgeStyle=none;html=1;endArrow=open;verticalAlign=middle;dashed=1;labelBackgroundColor=none;rounded=0;exitX=0.5;exitY=1;exitDx=0;exitDy=0;entryX=0.5;entryY=0;entryDx=0;entryDy=0;fontSize=16;" parent="1" source="lPPpHJNWQw5s5m9NbLX2-3" target="lPPpHJNWQw5s5m9NbLX2-4" edge="1">
          <mxGeometry width="160" relative="1" as="geometry">
            <mxPoint x="266" y="390" as="sourcePoint" />
            <mxPoint x="426" y="390" as="targetPoint" />
          </mxGeometry>
        </mxCell>
      </root>
    </mxGraphModel>
  </diagram>
  <diagram id="-MxHzGGTrYdibV--Z3z3" name="Nominate a User">
    <mxGraphModel dx="1400" dy="696" grid="1" gridSize="10" guides="1" tooltips="1" connect="1" arrows="1" fold="1" page="1" pageScale="1" pageWidth="827" pageHeight="1169" math="0" shadow="0">
      <root>
        <mxCell id="0" />
        <mxCell id="1" parent="0" />
        <mxCell id="U67aJAEu9DHAWmMzM7xq-1" value="Nominating a User to Receive Notifications" style="shape=rect;html=1;verticalAlign=top;fontStyle=1;whiteSpace=wrap;align=center;fontSize=16;" vertex="1" parent="1">
          <mxGeometry x="245" y="190" width="310" height="980" as="geometry" />
        </mxCell>
        <mxCell id="U67aJAEu9DHAWmMzM7xq-2" value="Searches for Nominee" style="ellipse;whiteSpace=wrap;html=1;fontSize=16;" vertex="1" parent="1">
          <mxGeometry x="300" y="250" width="200" height="70" as="geometry" />
        </mxCell>
        <mxCell id="U67aJAEu9DHAWmMzM7xq-3" value="Handles nomination request" style="ellipse;whiteSpace=wrap;html=1;fontSize=16;" vertex="1" parent="1">
          <mxGeometry x="300" y="370" width="200" height="70" as="geometry" />
        </mxCell>
        <mxCell id="U67aJAEu9DHAWmMzM7xq-4" value="Fetches nominees details" style="ellipse;whiteSpace=wrap;html=1;fontSize=16;" vertex="1" parent="1">
          <mxGeometry x="300" y="500" width="200" height="70" as="geometry" />
        </mxCell>
        <mxCell id="U67aJAEu9DHAWmMzM7xq-5" value="Stores nominee&#39;s details" style="ellipse;whiteSpace=wrap;html=1;fontSize=16;" vertex="1" parent="1">
          <mxGeometry x="300" y="620" width="200" height="70" as="geometry" />
        </mxCell>
        <mxCell id="U67aJAEu9DHAWmMzM7xq-6" value="Fetches nominator&#39;s medication reminders" style="ellipse;whiteSpace=wrap;html=1;fontSize=16;" vertex="1" parent="1">
          <mxGeometry x="300" y="860" width="200" height="70" as="geometry" />
        </mxCell>
        <mxCell id="A4jljhHhtArEh7AwvDSI-7" style="rounded=0;orthogonalLoop=1;jettySize=auto;html=1;entryX=1;entryY=0.5;entryDx=0;entryDy=0;endArrow=none;endFill=0;" edge="1" parent="1" source="U67aJAEu9DHAWmMzM7xq-13" target="U67aJAEu9DHAWmMzM7xq-3">
          <mxGeometry relative="1" as="geometry" />
        </mxCell>
        <mxCell id="A4jljhHhtArEh7AwvDSI-9" style="rounded=0;orthogonalLoop=1;jettySize=auto;html=1;entryX=1;entryY=0.5;entryDx=0;entryDy=0;endArrow=none;endFill=0;" edge="1" parent="1" source="U67aJAEu9DHAWmMzM7xq-13" target="U67aJAEu9DHAWmMzM7xq-6">
          <mxGeometry relative="1" as="geometry" />
        </mxCell>
        <mxCell id="U67aJAEu9DHAWmMzM7xq-13" value="Activity Service" style="shape=umlActor;html=1;verticalLabelPosition=bottom;verticalAlign=top;align=center;fontSize=16;" vertex="1" parent="1">
          <mxGeometry x="660" y="260" width="30" height="60" as="geometry" />
        </mxCell>
        <mxCell id="A4jljhHhtArEh7AwvDSI-8" style="rounded=0;orthogonalLoop=1;jettySize=auto;html=1;entryX=1;entryY=0.5;entryDx=0;entryDy=0;endArrow=none;endFill=0;" edge="1" parent="1" source="U67aJAEu9DHAWmMzM7xq-15" target="U67aJAEu9DHAWmMzM7xq-5">
          <mxGeometry relative="1" as="geometry" />
        </mxCell>
        <mxCell id="U67aJAEu9DHAWmMzM7xq-15" value="Database" style="shape=umlActor;html=1;verticalLabelPosition=bottom;verticalAlign=top;align=center;fontSize=16;" vertex="1" parent="1">
          <mxGeometry x="660" y="510" width="30" height="60" as="geometry" />
        </mxCell>
        <mxCell id="A4jljhHhtArEh7AwvDSI-10" style="rounded=0;orthogonalLoop=1;jettySize=auto;html=1;entryX=1;entryY=0.5;entryDx=0;entryDy=0;endArrow=none;endFill=0;" edge="1" parent="1" source="U67aJAEu9DHAWmMzM7xq-19" target="U67aJAEu9DHAWmMzM7xq-23">
          <mxGeometry relative="1" as="geometry" />
        </mxCell>
        <mxCell id="U67aJAEu9DHAWmMzM7xq-19" value="Notification Service" style="shape=umlActor;html=1;verticalLabelPosition=bottom;verticalAlign=top;align=center;fontSize=16;" vertex="1" parent="1">
          <mxGeometry x="660" y="760" width="30" height="60" as="geometry" />
        </mxCell>
        <mxCell id="A4jljhHhtArEh7AwvDSI-6" style="rounded=0;orthogonalLoop=1;jettySize=auto;html=1;endArrow=none;endFill=0;" edge="1" parent="1" source="U67aJAEu9DHAWmMzM7xq-22" target="U67aJAEu9DHAWmMzM7xq-2">
          <mxGeometry relative="1" as="geometry" />
        </mxCell>
        <mxCell id="U67aJAEu9DHAWmMzM7xq-22" value="&lt;font style=&quot;font-size: 16px;&quot;&gt;User&lt;/font&gt;" style="shape=umlActor;html=1;verticalLabelPosition=bottom;verticalAlign=top;align=center;" vertex="1" parent="1">
          <mxGeometry x="80" y="260" width="30" height="60" as="geometry" />
        </mxCell>
        <mxCell id="U67aJAEu9DHAWmMzM7xq-23" value="Creates Notification" style="ellipse;whiteSpace=wrap;html=1;fontSize=16;" vertex="1" parent="1">
          <mxGeometry x="300" y="980" width="200" height="70" as="geometry" />
        </mxCell>
        <mxCell id="A4jljhHhtArEh7AwvDSI-12" style="rounded=0;orthogonalLoop=1;jettySize=auto;html=1;entryX=0;entryY=0.5;entryDx=0;entryDy=0;endArrow=none;endFill=0;" edge="1" parent="1" source="A4jljhHhtArEh7AwvDSI-1" target="A4jljhHhtArEh7AwvDSI-11">
          <mxGeometry relative="1" as="geometry" />
        </mxCell>
        <mxCell id="A4jljhHhtArEh7AwvDSI-18" style="rounded=0;orthogonalLoop=1;jettySize=auto;html=1;endArrow=none;endFill=0;" edge="1" parent="1" source="A4jljhHhtArEh7AwvDSI-1" target="A4jljhHhtArEh7AwvDSI-16">
          <mxGeometry relative="1" as="geometry" />
        </mxCell>
        <mxCell id="A4jljhHhtArEh7AwvDSI-1" value="&lt;span style=&quot;font-size: 16px;&quot;&gt;Nominee&lt;/span&gt;" style="shape=umlActor;html=1;verticalLabelPosition=bottom;verticalAlign=top;align=center;" vertex="1" parent="1">
          <mxGeometry x="80" y="740" width="30" height="60" as="geometry" />
        </mxCell>
        <mxCell id="A4jljhHhtArEh7AwvDSI-11" value="Receives Notification" style="ellipse;whiteSpace=wrap;html=1;fontSize=16;" vertex="1" parent="1">
          <mxGeometry x="300" y="1080" width="200" height="70" as="geometry" />
        </mxCell>
        <mxCell id="A4jljhHhtArEh7AwvDSI-13" value="&amp;lt;&amp;lt;extend&amp;gt;&amp;gt;" style="html=1;verticalAlign=middle;labelBackgroundColor=none;endArrow=open;endFill=0;dashed=1;rounded=0;exitX=0.5;exitY=1;exitDx=0;exitDy=0;fontSize=16;" edge="1" parent="1" source="U67aJAEu9DHAWmMzM7xq-6" target="U67aJAEu9DHAWmMzM7xq-23">
          <mxGeometry width="160" relative="1" as="geometry">
            <mxPoint x="690" y="860" as="sourcePoint" />
            <mxPoint x="850" y="860" as="targetPoint" />
          </mxGeometry>
        </mxCell>
        <mxCell id="A4jljhHhtArEh7AwvDSI-15" value="&amp;lt;&amp;lt;include&amp;gt;&amp;gt;" style="html=1;verticalAlign=middle;labelBackgroundColor=none;endArrow=open;endFill=0;dashed=1;rounded=0;exitX=0.5;exitY=1;exitDx=0;exitDy=0;fontSize=16;" edge="1" parent="1" source="U67aJAEu9DHAWmMzM7xq-3" target="U67aJAEu9DHAWmMzM7xq-4">
          <mxGeometry width="160" relative="1" as="geometry">
            <mxPoint x="450" y="460" as="sourcePoint" />
            <mxPoint x="610" y="460" as="targetPoint" />
          </mxGeometry>
        </mxCell>
        <mxCell id="A4jljhHhtArEh7AwvDSI-16" value="Accepts Nomination request" style="ellipse;whiteSpace=wrap;html=1;fontSize=16;" vertex="1" parent="1">
          <mxGeometry x="300" y="740" width="200" height="70" as="geometry" />
        </mxCell>
      </root>
    </mxGraphModel>
  </diagram>
</mxfile>
